<?xml version="1.0" encoding="utf-8"?>
<!-- Generator: Adobe Illustrator 15.1.0, SVG Export Plug-In . SVG Version: 6.00 Build 0)  -->
<!DOCTYPE svg PUBLIC "-//W3C//DTD SVG 1.1//EN" "http://www.w3.org/Graphics/SVG/1.1/DTD/svg11.dtd">
<svg version="1.1" id="Layer_1" xmlns="http://www.w3.org/2000/svg" xmlns:xlink="http://www.w3.org/1999/xlink" x="0px" y="0px"
	 width="480px" height="480px" viewBox="0 0 480 480" enable-background="new 0 0 480 480" xml:space="preserve">
<path fill="#EF4444" d="M109.451,407.473c-20.393,0-36.924-16.53-36.924-36.923s16.531-36.924,36.924-36.924
	c20.392,0,36.923,16.531,36.923,36.924S129.843,407.473,109.451,407.473z M240,276.924c-20.392,0-36.923-16.531-36.923-36.923
	c0-20.394,16.531-36.923,36.923-36.923c20.394,0,36.923,16.529,36.923,36.923C276.923,260.393,260.392,276.924,240,276.924z
	 M370.551,146.374c-20.393,0-36.924-16.53-36.924-36.923s16.531-36.924,36.924-36.924s36.923,16.531,36.923,36.924
	C407.472,129.844,390.942,146.374,370.551,146.374z"/>
</svg>
